<svg width="187" height="73" viewBox="0 0 187 73" fill="none" xmlns="http://www.w3.org/2000/svg">
<g filter="url(#filter0_i_713_176)">
<path d="M37.3864 72.3345H3.60834C2.33874 72.3345 1.40324 72.0666 0.801853 71.5308C0.267284 70.928 0 69.9903 0 68.7178V3.61672C0 2.34417 0.267284 1.43999 0.801853 0.904181C1.40324 0.301394 2.33874 0 3.60834 0H37.3864C45.739 0 51.92 1.67441 55.9292 5.02323C60.0053 8.37205 62.0433 13.5292 62.0433 20.4948V51.8397C62.0433 58.8053 60.0053 63.9624 55.9292 67.3112C51.92 70.6601 45.739 72.3345 37.3864 72.3345ZM22.7526 19.1887V53.3467H34.6801C36.2838 53.3467 37.4532 52.9448 38.1882 52.1411C38.9901 51.3374 39.391 50.0983 39.391 48.4239V24.011C39.391 22.3366 38.9901 21.131 38.1882 20.3943C37.4532 19.5906 36.2838 19.1887 34.6801 19.1887H22.7526Z" fill="#C59B2D" fill-opacity="0.2"/>
<path d="M120.588 72.3345H76.2856C75.016 72.3345 74.0805 72.0666 73.4791 71.5308C72.9446 70.928 72.6773 69.9903 72.6773 68.7178V56.5615C72.6773 55.289 72.9446 54.3848 73.4791 53.849C74.0805 53.2462 75.016 52.9448 76.2856 52.9448H87.5116V19.3897H78.2903C77.0207 19.3897 76.0852 19.1218 75.4838 18.5859C74.9492 17.9832 74.6819 17.0455 74.6819 15.7729V3.61672C74.6819 2.34417 74.9492 1.43999 75.4838 0.904181C76.0852 0.301394 77.0207 0 78.2903 0H107.357C108.627 0 109.529 0.301394 110.064 0.904181C110.665 1.43999 110.966 2.34417 110.966 3.61672V52.9448H120.588C121.858 52.9448 122.76 53.2462 123.294 53.849C123.896 54.3848 124.196 55.289 124.196 56.5615V68.7178C124.196 69.9903 123.896 70.928 123.294 71.5308C122.76 72.0666 121.858 72.3345 120.588 72.3345Z" fill="#C59B2D" fill-opacity="0.2"/>
<path d="M183.392 72.3345H135.681C134.412 72.3345 133.476 72.0666 132.875 71.5308C132.34 70.928 132.073 69.9903 132.073 68.7178V51.4378C132.073 47.5532 132.441 44.3718 133.176 41.8937C133.978 39.3486 135.08 37.2723 136.483 35.6649C137.887 34.0575 139.557 32.7849 141.495 31.8473C143.433 30.9096 145.538 30.1059 147.809 29.4361L161.24 25.2166C162.31 24.9487 163.011 24.5468 163.345 24.011C163.746 23.4752 163.947 22.6715 163.947 21.5999C163.947 20.5952 163.746 19.9255 163.345 19.5906C162.944 19.1887 162.243 18.9878 161.24 18.9878H139.49C138.221 18.9878 137.285 18.7199 136.684 18.1841C136.149 17.5813 135.882 16.6436 135.882 15.3711V3.61672C135.882 2.34417 136.149 1.43999 136.684 0.904181C137.285 0.301394 138.221 0 139.49 0H169.059C174.738 0 179.082 1.43999 182.089 4.31997C185.162 7.13298 186.699 11.252 186.699 16.6771V26.1208C186.699 31.144 185.296 34.9952 182.49 37.6742C179.683 40.3533 175.874 42.4295 171.063 43.903L157.432 48.223C156.429 48.4909 155.728 48.7923 155.327 49.1272C154.993 49.462 154.826 50.1653 154.826 51.2369V53.3467H183.392C184.661 53.3467 185.563 53.6481 186.098 54.2509C186.699 54.7867 187 55.6908 187 56.9634V68.7178C187 69.9903 186.699 70.928 186.098 71.5308C185.563 72.0666 184.661 72.3345 183.392 72.3345Z" fill="#C59B2D" fill-opacity="0.2"/>
</g>
<defs>
<filter id="filter0_i_713_176" x="0" y="0" width="187" height="105.784" filterUnits="userSpaceOnUse" color-interpolation-filters="sRGB">
<feFlood flood-opacity="0" result="BackgroundImageFix"/>
<feBlend mode="normal" in="SourceGraphic" in2="BackgroundImageFix" result="shape"/>
<feColorMatrix in="SourceAlpha" type="matrix" values="0 0 0 0 0 0 0 0 0 0 0 0 0 0 0 0 0 0 127 0" result="hardAlpha"/>
<feOffset dy="33.4493"/>
<feGaussianBlur stdDeviation="16.7247"/>
<feComposite in2="hardAlpha" operator="arithmetic" k2="-1" k3="1"/>
<feColorMatrix type="matrix" values="0 0 0 0 0.478431 0 0 0 0 0.360784 0 0 0 0 0.117647 0 0 0 0.3 0"/>
<feBlend mode="normal" in2="shape" result="effect1_innerShadow_713_176"/>
</filter>
</defs>
</svg>
