<svg width="52" height="20" viewBox="0 0 52 20" fill="none" xmlns="http://www.w3.org/2000/svg">
<g filter="url(#filter0_i_713_84)">
<path d="M10.3611 20H1C0.648148 20 0.388889 19.9259 0.222222 19.7778C0.0740741 19.6111 0 19.3519 0 19V1C0 0.648149 0.0740741 0.398149 0.222222 0.25C0.388889 0.0833334 0.648148 0 1 0H10.3611C12.6759 0 14.3889 0.462963 15.5 1.38889C16.6296 2.31482 17.1944 3.74074 17.1944 5.66667V14.3333C17.1944 16.2593 16.6296 17.6852 15.5 18.6111C14.3889 19.537 12.6759 20 10.3611 20ZM6.30556 5.30556V14.75H9.61111C10.0556 14.75 10.3796 14.6389 10.5833 14.4167C10.8056 14.1944 10.9167 13.8519 10.9167 13.3889V6.63889C10.9167 6.17593 10.8056 5.84259 10.5833 5.63889C10.3796 5.41667 10.0556 5.30556 9.61111 5.30556H6.30556Z" fill="#C59B2D"/>
<path d="M10.3611 20H1C0.648148 20 0.388889 19.9259 0.222222 19.7778C0.0740741 19.6111 0 19.3519 0 19V1C0 0.648149 0.0740741 0.398149 0.222222 0.25C0.388889 0.0833334 0.648148 0 1 0H10.3611C12.6759 0 14.3889 0.462963 15.5 1.38889C16.6296 2.31482 17.1944 3.74074 17.1944 5.66667V14.3333C17.1944 16.2593 16.6296 17.6852 15.5 18.6111C14.3889 19.537 12.6759 20 10.3611 20ZM6.30556 5.30556V14.75H9.61111C10.0556 14.75 10.3796 14.6389 10.5833 14.4167C10.8056 14.1944 10.9167 13.8519 10.9167 13.3889V6.63889C10.9167 6.17593 10.8056 5.84259 10.5833 5.63889C10.3796 5.41667 10.0556 5.30556 9.61111 5.30556H6.30556Z" fill="url(#paint0_linear_713_84)" fill-opacity="0.2"/>
<path d="M33.4193 20H21.1415C20.7896 20 20.5304 19.9259 20.3637 19.7778C20.2156 19.6111 20.1415 19.3519 20.1415 19V15.6389C20.1415 15.287 20.2156 15.037 20.3637 14.8889C20.5304 14.7222 20.7896 14.6389 21.1415 14.6389H24.2526V5.36111H21.697C21.3452 5.36111 21.0859 5.28704 20.9193 5.13889C20.7711 4.97222 20.697 4.71296 20.697 4.36111V1C20.697 0.648149 20.7711 0.398149 20.9193 0.25C21.0859 0.0833334 21.3452 0 21.697 0H29.7526C30.1045 0 30.3545 0.0833334 30.5026 0.25C30.6693 0.398149 30.7526 0.648149 30.7526 1V14.6389H33.4193C33.7711 14.6389 34.0211 14.7222 34.1693 14.8889C34.3359 15.037 34.4193 15.287 34.4193 15.6389V19C34.4193 19.3519 34.3359 19.6111 34.1693 19.7778C34.0211 19.9259 33.7711 20 33.4193 20Z" fill="#C59B2D"/>
<path d="M33.4193 20H21.1415C20.7896 20 20.5304 19.9259 20.3637 19.7778C20.2156 19.6111 20.1415 19.3519 20.1415 19V15.6389C20.1415 15.287 20.2156 15.037 20.3637 14.8889C20.5304 14.7222 20.7896 14.6389 21.1415 14.6389H24.2526V5.36111H21.697C21.3452 5.36111 21.0859 5.28704 20.9193 5.13889C20.7711 4.97222 20.697 4.71296 20.697 4.36111V1C20.697 0.648149 20.7711 0.398149 20.9193 0.25C21.0859 0.0833334 21.3452 0 21.697 0H29.7526C30.1045 0 30.3545 0.0833334 30.5026 0.25C30.6693 0.398149 30.7526 0.648149 30.7526 1V14.6389H33.4193C33.7711 14.6389 34.0211 14.7222 34.1693 14.8889C34.3359 15.037 34.4193 15.287 34.4193 15.6389V19C34.4193 19.3519 34.3359 19.6111 34.1693 19.7778C34.0211 19.9259 33.7711 20 33.4193 20Z" fill="url(#paint1_linear_713_84)" fill-opacity="0.2"/>
<path d="M50.8244 20H37.6022C37.2504 20 36.9911 19.9259 36.8244 19.7778C36.6763 19.6111 36.6022 19.3519 36.6022 19V14.2222C36.6022 13.1481 36.7041 12.2685 36.9078 11.5833C37.13 10.8796 37.4355 10.3056 37.8244 9.86111C38.2133 9.41667 38.6763 9.06481 39.2133 8.80556C39.7504 8.5463 40.3337 8.32407 40.9633 8.13889L44.6856 6.97222C44.9818 6.89815 45.1763 6.78704 45.2689 6.63889C45.38 6.49074 45.4355 6.26852 45.4355 5.97222C45.4355 5.69444 45.38 5.50926 45.2689 5.41667C45.1578 5.30556 44.9633 5.25 44.6856 5.25H38.6578C38.3059 5.25 38.0467 5.17593 37.88 5.02778C37.7318 4.86111 37.6578 4.60185 37.6578 4.25V1C37.6578 0.648149 37.7318 0.398149 37.88 0.25C38.0467 0.0833334 38.3059 0 38.6578 0H46.8522C48.4263 0 49.63 0.398148 50.4633 1.19444C51.3152 1.97222 51.7411 3.11111 51.7411 4.61111V7.22222C51.7411 8.61111 51.3522 9.67593 50.5744 10.4167C49.7967 11.1574 48.7411 11.7315 47.4078 12.1389L43.63 13.3333C43.3522 13.4074 43.1578 13.4907 43.0467 13.5833C42.9541 13.6759 42.9078 13.8704 42.9078 14.1667V14.75H50.8244C51.1763 14.75 51.4263 14.8333 51.5744 15C51.7411 15.1481 51.8244 15.3981 51.8244 15.75V19C51.8244 19.3519 51.7411 19.6111 51.5744 19.7778C51.4263 19.9259 51.1763 20 50.8244 20Z" fill="#C59B2D"/>
<path d="M50.8244 20H37.6022C37.2504 20 36.9911 19.9259 36.8244 19.7778C36.6763 19.6111 36.6022 19.3519 36.6022 19V14.2222C36.6022 13.1481 36.7041 12.2685 36.9078 11.5833C37.13 10.8796 37.4355 10.3056 37.8244 9.86111C38.2133 9.41667 38.6763 9.06481 39.2133 8.80556C39.7504 8.5463 40.3337 8.32407 40.9633 8.13889L44.6856 6.97222C44.9818 6.89815 45.1763 6.78704 45.2689 6.63889C45.38 6.49074 45.4355 6.26852 45.4355 5.97222C45.4355 5.69444 45.38 5.50926 45.2689 5.41667C45.1578 5.30556 44.9633 5.25 44.6856 5.25H38.6578C38.3059 5.25 38.0467 5.17593 37.88 5.02778C37.7318 4.86111 37.6578 4.60185 37.6578 4.25V1C37.6578 0.648149 37.7318 0.398149 37.88 0.25C38.0467 0.0833334 38.3059 0 38.6578 0H46.8522C48.4263 0 49.63 0.398148 50.4633 1.19444C51.3152 1.97222 51.7411 3.11111 51.7411 4.61111V7.22222C51.7411 8.61111 51.3522 9.67593 50.5744 10.4167C49.7967 11.1574 48.7411 11.7315 47.4078 12.1389L43.63 13.3333C43.3522 13.4074 43.1578 13.4907 43.0467 13.5833C42.9541 13.6759 42.9078 13.8704 42.9078 14.1667V14.75H50.8244C51.1763 14.75 51.4263 14.8333 51.5744 15C51.7411 15.1481 51.8244 15.3981 51.8244 15.75V19C51.8244 19.3519 51.7411 19.6111 51.5744 19.7778C51.4263 19.9259 51.1763 20 50.8244 20Z" fill="url(#paint2_linear_713_84)" fill-opacity="0.2"/>
</g>
<defs>
<filter id="filter0_i_713_84" x="0" y="0" width="51.8245" height="27.0319" filterUnits="userSpaceOnUse" color-interpolation-filters="sRGB">
<feFlood flood-opacity="0" result="BackgroundImageFix"/>
<feBlend mode="normal" in="SourceGraphic" in2="BackgroundImageFix" result="shape"/>
<feColorMatrix in="SourceAlpha" type="matrix" values="0 0 0 0 0 0 0 0 0 0 0 0 0 0 0 0 0 0 127 0" result="hardAlpha"/>
<feOffset dy="7.03194"/>
<feGaussianBlur stdDeviation="3.51597"/>
<feComposite in2="hardAlpha" operator="arithmetic" k2="-1" k3="1"/>
<feColorMatrix type="matrix" values="0 0 0 0 0.478431 0 0 0 0 0.360784 0 0 0 0 0.117647 0 0 0 0.3 0"/>
<feBlend mode="normal" in2="shape" result="effect1_innerShadow_713_84"/>
</filter>
<linearGradient id="paint0_linear_713_84" x1="0" y1="0" x2="51.8244" y2="20" gradientUnits="userSpaceOnUse">
<stop stop-color="#9C7F22"/>
<stop offset="1" stop-color="#D4AF37"/>
</linearGradient>
<linearGradient id="paint1_linear_713_84" x1="0" y1="0" x2="51.8244" y2="20" gradientUnits="userSpaceOnUse">
<stop stop-color="#9C7F22"/>
<stop offset="1" stop-color="#D4AF37"/>
</linearGradient>
<linearGradient id="paint2_linear_713_84" x1="0" y1="0" x2="51.8244" y2="20" gradientUnits="userSpaceOnUse">
<stop stop-color="#9C7F22"/>
<stop offset="1" stop-color="#D4AF37"/>
</linearGradient>
</defs>
</svg>
