<svg width="48" height="48" viewBox="0 0 48 48" fill="none" xmlns="http://www.w3.org/2000/svg">
<path d="M0 24C0 10.7452 10.7452 0 24 0C37.2548 0 48 10.7452 48 24C48 37.2548 37.2548 48 24 48C10.7452 48 0 37.2548 0 24Z" fill="#C59B2D" fill-opacity="0.1"/>
<path d="M24 0.5C36.9787 0.5 47.5 11.0213 47.5 24C47.5 36.9787 36.9787 47.5 24 47.5C11.0213 47.5 0.5 36.9787 0.5 24C0.5 11.0213 11.0213 0.5 24 0.5Z" stroke="#C59B2D" stroke-opacity="0.4"/>
<path fill-rule="evenodd" clip-rule="evenodd" d="M15.8333 14.6667H32.1666C32.8109 14.6667 33.3333 15.189 33.3333 15.8333V32.1667C33.3333 32.811 32.8109 33.3333 32.1666 33.3333H15.8333C15.1889 33.3333 14.6666 32.811 14.6666 32.1667V15.8333C14.6666 15.189 15.1889 14.6667 15.8333 14.6667ZM12.3333 15.8333C12.3333 13.9004 13.9003 12.3333 15.8333 12.3333H32.1666C34.0996 12.3333 35.6666 13.9004 35.6666 15.8333V32.1667C35.6666 34.0997 34.0996 35.6667 32.1666 35.6667H15.8333C13.9003 35.6667 12.3333 34.0997 12.3333 32.1667V15.8333ZM23.9999 24C20.7783 24 18.1666 20.866 18.1666 17H20.4999C20.4999 19.9937 22.4472 21.6667 23.9999 21.6667C25.5526 21.6667 27.4999 19.9937 27.4999 17H29.8333C29.8333 20.866 27.2216 24 23.9999 24Z" fill="#C59B2D"/>
</svg>
